<svg width="457" height="674" xmlns="http://www.w3.org/2000/svg" xmlns:xlink="http://www.w3.org/1999/xlink" overflow="hidden"><defs><clipPath id="clip0"><path d="M249.561 206.662 250.192 221.087 235.775 221.718 235.143 207.294Z" fill-rule="evenodd" clip-rule="evenodd"/></clipPath><clipPath id="clip1"><path d="M249.633 461.864 249.778 476.301 235.347 476.446 235.202 462.009Z" fill-rule="evenodd" clip-rule="evenodd"/></clipPath></defs><g transform="translate(-14 -25)"><g><g><path d="M-162.107-57.2607C-162.107-57.2607-162.107-57.2607-162.107-57.2607M-162.107-57.2607C-162.107-57.2607-162.107-57.2607-162.107-57.2607M-160.715-45.5958C-158.086-47.4753-153.968-51.3011-149.305-58.5644M-161.462-44.4493C-157.321-49.1957-154.375-53.1779-149.341-57.7886M-162.474-30.6125C-154.317-35.3707-149.532-41.4189-138.645-55.8921M-161.554-29.7819C-153.477-39.8325-144.979-47.3932-136.711-57.1112M-163.767-15.8972C-150.542-27.0064-139.459-42.7932-124.066-58.1817M-160.556-16.5508C-152.643-28.2615-143.3-38.5165-125.915-56.8794M-164.375-0.157058C-144.683-20.7649-130.359-41.5353-113.425-56.2338M-160.851-1.47731C-147.388-17.6728-132.912-35.4322-112.996-57.5557M-160.546 12.9261C-149.046-4.48362-133.875-19.9945-104.203-58.9581M-161.19 9.61107C-141.807-13.1978-120.072-38.2115-101.719-57.0422M-160.136 26.2423C-132.42-6.17911-105.937-42.3996-89.7778-56.7406M-160.588 25.0183C-146.563 8.09844-129.807-11.7264-89.3148-57.9519M-160.25 40.7417C-140.705 18.4586-122.153-5.78699-77.4086-60.2272M-161 37.6098C-128.238-0.23351-96.9187-36.245-78.3622-58.4179M-163.365 54.5506C-126.107 10.6702-89.9371-31.6377-64.0865-57.9908M-161.585 52.3987C-130.932 15.7385-96.8112-23.155-65.8422-56.4731M-151.897 55.6742C-125.109 22.0434-96.3367-8.12707-55.154-55.3287M-153.554 56.0706C-122.725 22.0085-92.8064-13.3046-54.8482-57.8971M-141.421 55.8116C-115.213 24.5239-85.7231-5.81722-42.2399-59.347M-142.63 58.5213C-121.62 35.0939-101.593 11.3188-41.1962-58.1997M-133.46 58.7804C-93.6515 17.1074-57.8621-26.8894-30.69-59.4173M-132.053 57.5185C-107.581 31.3751-81.7623 1.9053-31.3086-56.5904M-117.598 54.8655C-87.9546 23.8561-57.6279-9.9328-19.1673-59.5263M-118.86 57.3744C-82.9804 15.629-47.9569-22.1515-19.7837-57.844M-107.313 57.5795C-78.2327 25.2673-50.5781-7.3936-6.14947-57.1066M-106.357 57.7908C-72.7137 17.045-37.1933-22.8584-5.59856-58.8747M-94.7306 60.3022C-71.4236 26.2913-45.3372-0.00273662 5.832-56.9294M-94.3389 57.1976C-60.4017 20.7392-27.8754-18.4821 6.38602-58.411M-82.5381 55.8458C-61.7639 32.9434-38.138 9.04022 19.5345-56.7859M-82.0536 57.963C-49.5678 19.8889-18.1004-16.6778 17.8015-57.7291M-68.6644 55.6095C-44.8849 24.1594-15.6174-6.77086 31.9869-59.1052M-71.3769 58.3111C-42.4617 23.4252-14.226-10.1592 28.3917-57.7087M-58.4728 60.6111C-25.1688 19.3975 15.236-23.4033 39.0864-57.426M-59.7907 58.5448C-24.428 17.8039 8.43757-21.6075 40.0804-58.5392M-48.9746 59.1827C-27.6363 30.7218-5.56889 8.16996 54.2481-56.5572M-47.5052 58.4299C-25.8337 32.2898-3.61449 8.49272 54.7499-57.6554M-33.8073 58.4429C-9.00508 27.5903 12.5757 0.652896 63.631-55.5556M-35.1162 58.6585C-4.61602 22.2845 24.9338-11.6711 64.8206-58.0596M-22.0188 60.2941C-0.0845421 28.956 25.1831 0.214453 77.0952-59.048M-24.4719 57.2126C2.57748 28.4464 30.9771-2.25183 77.3208-56.2579M-10.4497 58.9312C6.951 33.2442 27.4673 13.1858 91.7068-56.1385M-11.1011 57.3381C27.2715 14.097 64.3805-30.2947 88.758-58.6562M2.79093 59.4744C33.7088 21.5198 61.0514-11.0669 100.95-57.9799M0.607277 58.3374C26.3664 30.9429 49.4138 2.71382 102.033-58.6646M10.7142 56.783C51.0201 10.2344 92.7118-30.8913 110.695-56.9475M12.4614 57.5265C33.9064 31.086 57.2465 6.51142 111.566-56.9676M24.333 57.715C51.8181 28.8668 75.86-0.700991 124.483-58.9011M25.7369 58.3791C58.073 19.1813 93.2756-19.3772 126.355-59.1836M34.1439 60.0643C74.0821 16.0862 109.013-26.4762 139.269-57.3785M37.0044 58.4649C64.2026 27.389 92.0793-5.80139 137.657-58.2856M47.2139 59.575C87.6607 10.8945 124.39-30.5091 147.194-55.1998M49.4324 56.414C69.9215 32.7571 93.5892 7.5217 149.021-57.0246M61.8546 55.3684C85.2159 28.3285 112.934-3.46721 160.017-60.3373M60.6501 56.9435C100.301 13.7133 137.066-30.2907 160.914-58.1581M73.0756 58.0129C96.8558 30.5106 120.825 1.82031 159.94-47.2224M71.4341 57.8819C101.273 25.003 127.507-7.9827 163.007-45.889M83.7304 57.5993C108.538 27.8441 131.151-0.0478424 162.062-33.2139M85.2665 57.1366C109.273 28.7176 134.988-0.298743 163.927-32.4372M98.7345 55.4434C119.772 30.116 147.699 0.27201 160.631-17.8202M97.6047 58.2399C121.822 27.9381 147.022-2.29039 161.804-18.3236M110.126 58.472C125.417 40.159 144.244 18.0018 163.808-2.30508M107.333 57.8187C125.063 37.7839 140.546 19.7957 162.409-5.39219M122.095 59.5018C129.264 43.2832 138.921 33.8468 164.344 10.4101M119.63 57.8387C135.75 38.9827 150.149 22.6862 161.391 9.28378M133.054 58.7935C144.525 44.7334 156.102 30.1844 161.13 21.5651M131.346 58.6833C140.325 48.624 147.027 42.3413 161.924 22.053M145.572 59.4403C151.882 50.2128 158.675 40.6781 164.068 37.3272M143.398 58.8654C149.343 51.1909 155.699 43.9537 163.699 36.3129M156.089 57.466C158.657 55.0441 161.122 51.4445 162.675 50.9133M156.374 57.0343C157.755 55.932 159.715 53.9758 162.289 50.1561" stroke="#D8E2DC" stroke-width="7.21564" stroke-dasharray="0 0" fill="none" transform="matrix(1 0 0 1.0005 242.545 97.4256)"/><path d="M-161.862-59.0599C-47.2552-54.3739 72.6353-55.0474 160.171-56.9352M-162.493-57.3505C-50.9247-58.6705 58.799-60.7862 161.021-58.5608M161.634-58.2839C163.141-24.9002 160.281 7.17885 163.329 58.4765M161.808-57.3448C162.206-27.8784 162.872 3.86286 162.184 58.3197M163.924 55.5029C43.6964 58.054-73.4138 57.0023-159.558 59.4805M161.865 57.8357C82.231 59.7629 3.88864 57.8675-161.999 56.763M-159.268 57.1564C-159.781 16.6587-159.332-23.5588-160.763-56.5216M-162.013 58.9388C-160.37 15.1552-161.753-28.4703-162.08-57.9207" stroke="#000000" stroke-width="2.34508" stroke-dasharray="0 0" fill="none" transform="matrix(1 0 0 1.0005 242.545 97.4256)"/><path d="M5.12265-14.6686C5.12265-14.6686 5.12265-14.6686 5.12265-14.6686M5.12265-14.6686C5.12265-14.6686 5.12265-14.6686 5.12265-14.6686M-28.5831 35.2679C-5.56981 12.6788 13.8985-10.4572 26.4791-27.1081M-26.6816 35.3563C-8.23052 13.4582 11.7026-8.49372 28.2397-25.4692M-28.1797 47.7508C-15.6015 31.1914-0.717685 17.0439 38.9163-26.1576M-26.8157 48.8455C-9.67408 28.3292 9.49357 8.60548 39.8653-25.1485M-23.3385 55.4136C-7.00629 37.1698 10.1054 22.2199 48.6378-22.2579M-22.9033 58.2297C3.57401 28.8962 28.7391-2.14066 47.142-20.236M-18.758 66.4755C16.7533 30.592 51.3844-9.58516 69.4341-34.1793M-19.6023 68.1241C9.84813 36.4074 38.209 3.54091 69.5897-35.1073M-17.6704 79.6863C14.7894 41.5058 47.4833 4.82936 86.7609-40.0838M-15.7274 78.2725C15.0343 41.9593 48.0554 6.13347 90.0522-41.1312M-12.8661 88.1563C14.1931 56.477 40.2348 23.822 103.876-43.7483M-12.7942 87.6077C29.1852 40.64 70.757-7.92288 101.242-42.2094M-6.81554 92.7195C37.9989 42.0227 85.0973-6.47992 111.192-41.5385M-5.69706 94.6432C29.4235 54.6764 62.2827 16.4614 112.534-42.2209M-0.907851 101.306C27.1063 70.6849 60.3366 36.5766 123.281-38.9986M-1.10439 102.797C35.8426 60.7516 70.7263 19.3191 122.374-40.8069M-0.505727 112.165C32.7585 79.5611 63.2697 38.9457 136.648-42.6779M1.55371 114.688C31.4105 79.3205 61.1468 45.0944 136.047-42.3712M6.51584 120.219C50.805 68.4881 97.5694 19.7165 147.65-43.0536M6.7988 121.243C47.7722 73.5169 90.4541 24.0935 146.935-40.9993M14.7438 129.791C50.5935 87.9176 82.765 45.9732 158.644-38.4432M11.8792 128.652C47.1933 88.2763 80.0256 50.0977 160.428-39.6898M18.123 132.06C76.5715 72.227 129.059 9.8919 167.634-36.8131M21.7253 133.166C77.5614 65.2207 134.876-0.767238 168.68-38.5015M33.3815 132.999C68.1466 87.6102 109.355 45.5009 178.339-31.782M31.1965 135.536C75.9735 79.9025 123.213 27.9912 175.944-32.9428M49.2698 123.302C101.622 66.4954 158.056 2.9655 186.371-26.9806M49.5377 124.245C95.7158 73.7908 139.409 21.6298 183.453-28.5957M57.6886 133.599C109.611 74.2394 159.365 13.475 190.819-18.9203M58.1414 132.295C105.768 78.4153 152.025 24.6205 190.117-22.0978M66.77 139.544C98.5546 93.2715 137.813 53.7061 191.334-13.5178M65.5178 137.724C103.579 90.9845 143.039 45.8267 194.311-9.98838M71.2039 138.014C119.593 84.1385 167.72 31.1675 197.862-1.21823M74.3903 140.13C121.779 87.6746 168.801 31.3388 198.444-1.64422M83.6033 141.768C128.135 91.0733 177.438 36.6925 207.646-0.0943617M81.8795 143.477C111.021 111.026 137.497 80.5972 205.803 1.86645M92.3733 145.647C120.712 112.427 151.618 77.6285 215.046 7.03054M92.5093 144.994C121.309 114.25 148.789 82.7883 214.26 7.71664M105.279 146.59C132.067 118.184 154.198 84.3439 220.923 12.6543M104.227 145.402C137.681 105.25 172.52 67.4706 219.431 11.9689M116.115 141.817C149.465 107.781 177.595 75.0579 225.426 18.0741M118.818 142.805C148.174 109.746 178.423 74.5678 225.372 20.3328M142.713 127.176C162.67 103.145 185.924 81.0101 226.879 32.5283M142.718 128.394C175.335 91.3234 208.836 52.3549 227.321 31.7103M160.166 124.494C189.627 89.3571 213.666 59.2545 231.201 40.0891M159.646 123.902C181.877 100.817 201.21 75.4271 231.416 42.3574M173.299 124.646C190.173 100.585 211.409 77.0246 234.738 49.0667M172.516 123.205C192.908 99.8145 216.789 74.0947 233.544 50.9451M210.57 92.3372C216.346 86.4827 223.683 74.8931 236.874 64.0021M210.865 93.9689C216.577 85.7846 223.838 75.3322 235.494 64.2331" stroke="#FDF1B8" stroke-width="7.21564" stroke-dasharray="0 0" fill="none" transform="matrix(1 0 0 1.0005 143.622 269.344)"/><path d="M0 0C-0.36629-21.2024 25.598-36.0622 47.6234-22.0442M2.36558-2.12364C4.2055-24.5926 26.9438-33.265 48.839-22.0767M46.3422-22.2396C45.2999-21.8556 47.4547-19.4159 47.7154-18.1113M45.1937-21.599C44.6324-22.3318 47.966-21.3799 49.1604-21.8242M49.4619-19.7848C69.7242-42.8109 99.0936-51.6018 126.809-40.8133M49.3347-21.85C69.5207-42.5665 100.744-49.6443 126.717-40.7947M128.601-39.5695C159.868-55.6403 191.713-34.6178 199.531 0.261264M129.484-41.7907C159.13-53.7119 191.173-32.3785 200.381-0.565722M197.848 0C214.915-2.63711 228.995 16.8051 228.704 33.7424M198.794 2.23558C214.728 0.288649 232.125 13.9297 228.697 36.2125M227.525 33.4625C242.798 58.7555 227.967 90.8851 199.26 96.8758M225.565 33.6763C242.851 55.7504 227.466 93.2302 196.926 93.0191M198.512 95.5553C200.803 94.5603 197.426 93.4688 197.766 96.9455M196.139 95.3165C200.598 95.6085 195.618 94.7247 197.361 97.3575M197.848 95.6072C197.249 110.258 175.333 127.581 148.592 126.975M198.504 96.9872C200.505 114.866 175.515 126.268 147.583 126.128M148.386 125.284C123.095 151.737 78.7269 152.102 51.6547 123.35M146.061 124.742C123.896 153.392 74.6389 155.132 50.4431 122.959M49.4619 125.284C34.2299 141.838 3.98517 131.922-0.182237 114.575M50.4727 127.49C35.6489 144.317 4.34044 131.708 1.45532 113.427M-0.281319 112.33C-3.83197 105.27-2.99778 101.279-2.39398 93.647M0.266857 114.038C1.02547 107.674-3.45282 99.2974 0.492362 93.8565M0 95.6072C-12.174 91.7426-23.2008 78.8998-20.3898 61.2896M-0.252996 94.9652C-16.7737 92.3668-25.2226 79.1623-17.3656 62.3774M-19.7848 62.1447C-35.1115 42.0948-24.8406 9.84801 1.30857-2.02331M-21.1149 62.0386C-35.0797 41.892-24.4248 6.07845 1.6052 2.64987M0 0C0 0 0 0 0 0M0 0C0 0 0 0 0 0M0 0C0 0 0 0 0 0M0 0C0 0 0 0 0 0M0 0C0 0 0 0 0 0M0 0C0 0 0 0 0 0" stroke="#000000" stroke-width="2.34508" stroke-dasharray="0 0" fill="none" transform="matrix(1 0 0 1.0005 143.622 269.344)"/><path d="M-209.444-100.8C-209.444-100.8-209.444-100.8-209.444-100.8M-209.444-100.8C-209.444-100.8-209.444-100.8-209.444-100.8M-208.473-88.043C-206.7-92.2509-200.872-96.271-198.014-101.628M-209.636-87.1114C-207.385-90.017-204.07-92.9799-196.03-101.59M-210.012-73.3349C-200.673-85.6791-191.526-96.5994-187.646-101.658M-208.358-73.0499C-202.44-81.293-198.364-87.1021-184.77-100.269M-211.481-59.0126C-194.368-73.9376-181.132-87.0886-175.815-100.845M-208.478-58.9262C-197.295-74.0999-184.462-89.9796-172.667-100.042M-210.312-45.9135C-195.186-62.0891-177.275-81.6301-161.889-102.214M-209.773-46.9286C-193.723-64.7148-175.772-84.1109-161.598-102.107M-210.28-33.0809C-189.851-57.4989-167.635-81.4212-151.561-99.4694M-210.089-31.5826C-195.308-47.0194-182.8-62.5305-148.573-102.057M-210.347-18.606C-189.846-43.0723-167.472-63.0728-139.188-98.5224M-208.12-19.2614C-185.145-46.0818-161.038-72.8249-136.984-101.368M-210.053-6.75411C-177.714-39.4007-146.735-73.6091-126.992-99.0722M-208.023-4.28164C-179.135-37.9394-152.237-71.538-124.552-101.532M-207.92 11.1599C-173.201-33.2045-138.329-74.1452-111.812-99.4344M-208.381 8.97467C-169.596-35.0136-133.561-78.9371-113.127-100.159M-211.931 25.3109C-177.35-13.9489-139.143-54.7481-100.714-99.5191M-208.693 23.3835C-182.426-7.6591-154.729-40.6608-101.499-101.451M-208.989 37.243C-165.032-16.2673-119.977-71.0516-89.014-99.3525M-208.831 34.954C-185.106 7.10143-160.589-22.404-88.9105-102.298M-209.991 47.8186C-168.412 2.87006-129.618-38.528-76.8913-103.425M-210.135 50.1026C-164.046-2.88919-117.486-55.7074-77.5512-101.843M-210.378 62.3277C-178.532 29.2242-149.381-4.06872-66.3439-103.026M-208.715 64.0937C-180.647 28.8624-150.03-5.90172-65.01-99.8841M-210.33 78.2246C-147.745 7.60928-85.5748-63.7502-52.0413-100.179M-210.525 78.8193C-156.663 17.3295-104.922-41.3633-53.3664-102.464M-206.378 93.2404C-158.517 31.071-102.464-27.2764-41.2357-101.508M-208.673 90.488C-148.069 21.7658-85.0397-49.4535-41.9873-101.115M-204.544 99.8166C-140.23 24.029-74.5129-52.2511-30.8338-98.5661M-206.123 101.483C-147.591 36.4364-90.0645-29.8123-30.7467-101.418M-193.372 100.916C-152.476 53.0578-111.554 7.92566-17.3855-100.197M-192.767 101.809C-131.041 27.7442-68.5769-43.5107-17.6384-101.687M-182.233 103.185C-123.925 36.8148-70.1605-27.7596-6.33955-100.857M-183.283 102.141C-138.399 50.5784-93.8758-2.00162-4.90459-101.205M-168.066 101.268C-118.32 42.3574-67.8591-16.4408 4.78935-102.196M-169.594 101.645C-129.118 52.6706-88.0086 5.22855 6.28675-99.2584M-159.069 99.4935C-115.18 49.8906-73.5085 2.77426 19.3685-99.4043M-157.919 100.785C-94.3495 27.3427-30.2912-45.2969 17.7068-102.549M-144.961 103.342C-79.2378 21.0206-14.6927-55.7326 30.3534-102.895M-146.615 102.023C-98.5456 47.8169-48.7468-8.58994 29.3449-101.124M-132.333 103.564C-95.4373 54.7333-53.6035 5.91445 41.2931-99.1997M-135.169 100.541C-85.7144 46.3427-37.642-8.87023 42.358-99.3336M-123.786 99.874C-62.2743 31.4274 1.45292-37.5439 55.785-103.21M-123.125 100.327C-84.9301 57.3894-43.9006 9.72184 54.2153-101.133M-108.534 103.747C-43.4906 22.4581 21.6697-52.6778 65.3552-99.0703M-110.769 101.602C-55.8316 36.9877 0.0459967-25.0489 64.454-99.8231M-99.6954 99.4361C-39.854 35.7293 16.0581-32.3948 76.1707-102.715M-97.7736 102.157C-59.8042 55.4969-19.3776 8.72435 77.0203-101.314M-86.7116 102.239C-25.4087 30.3455 35.2287-37.9575 90.6095-102.401M-87.5545 102.716C-19.7615 24.0345 47.4983-51.7263 89.06-101.601M-75.1413 102.214C-37.1084 59.0884-0.354985 16.1962 103.047-100.448M-74.3373 101.455C-26.218 45.1548 23.5145-12.7829 102.073-100.248M-62.5654 101.284C-22.2757 54.0089 21.6661 6.43582 113.764-99.6078M-63.3776 102.435C-15.7226 51.4582 28.9906-0.122659 112.89-102.175M-51.8594 103.074C5.21625 34.1493 60.4727-27.1916 126.968-101.842M-51.9088 102.477C1.33735 39.6016 54.996-20.9366 126.167-102.366M-39.2756 102.184C-0.569747 59.6136 39.289 17.0481 135.002-100.83M-40.1449 101.884C16.1258 37.8537 71.2682-25.973 136.5-101.732M-27.1546 99.7604C14.4665 53.3425 54.9057 11.1566 149.74-100.732M-26.913 101.258C37.0464 29.4678 98.6948-42.9006 149.419-101.072M-16.4574 99.7356C32.814 43.6841 87.862-13.2552 159.56-100.786M-13.8101 102.554C49.273 31.5792 110.269-40.2814 161.126-102.265M-3.63879 103.198C54.1458 36.0326 109.85-26.2759 174.293-101.852M-2.42709 102.698C47.3367 41.874 96.7649-17.5203 172.619-100.533M11.1791 100.692C52.6822 48.7088 94.5863 0.463228 183.404-103.469M9.99023 101.954C62.3517 39.6542 115.796-19.3794 185.433-102.491M20.8379 99.5855C89.7434 24.274 156.784-55.3502 195.612-100.272M21.6561 102.456C88.2698 24.4887 155.23-51.857 198.183-100.426M30.139 104.672C81.967 48.4282 125.768-3.59627 209.746-102.09M33.4007 102.48C103.855 21.3461 173.119-60.4999 209.619-100.703M42.6813 102.431C84.3702 56.9419 122.477 13.2432 212.939-90.1856M44.6404 100.637C83.6018 56.3252 124.921 9.20776 211.37-89.3115M58.3746 101.308C87.9246 66.9028 119.58 30.4734 209.8-75.1811M57.672 101.488C108.383 40.2569 162.876-22.7871 211.692-74.057M69.8875 101.292C104.249 62.0269 143.698 17.1605 208.218-63.5263M68.0298 103.254C118.642 42.8062 170.652-16.0893 210.371-60.9974M79.7225 100.678C116.636 60.7261 153.332 14.4159 210.042-50.2036M81.9494 102.019C115.994 61.1373 149.771 19.9135 210.368-48.9477M93.7168 103.409C127.851 57.642 167.952 17.9601 212.942-33.8375M92.9832 100.701C126.867 60.2163 161.556 21.4157 211.886-33.4181M105.306 102.44C127.77 72.8329 148.621 48.1734 208.204-21.6038M106.243 101.543C142.05 57.8371 177.17 16.5311 210.339-19.5423M118.091 103.169C138.098 72.1848 164.288 45.9887 210.008-6.52477M115.652 101.689C139.175 74.8771 161.977 46.9218 210.638-6.68131M128.919 102.421C157.111 68.372 187.173 34.7368 209.477 5.78242M128.11 102.915C154.916 69.1251 182.745 36.7731 212.011 6.13972M141.856 98.7585C162.348 81.05 177.633 56.5687 210.348 20.5534M140.915 101.187C156.429 82.7828 173.36 64.1234 211.136 21.5855M151.819 103.8C169.837 83.5603 182.355 65.4637 209.836 32.2905M152.651 102.654C167.619 84.8066 180.513 69.6131 209.845 34.482M166.25 103.131C183.67 81.3753 201.42 62.6137 211.237 51.3231M162.815 100.78C178.198 87.7496 191.377 72.5224 209.211 49.0239M176.375 100.881C187.797 87.329 197.426 76.8416 211.155 63.9912M176.567 99.9658C185.917 91.3978 196.099 80.614 209.929 62.052M189.875 102.324C194.673 97.186 200.426 92.1693 213.084 77.1906M187.716 101.37C196.559 91.2905 204.489 83.7072 211.835 75.0626M199.898 103.072C203.606 97.7255 205.763 94.3603 210.944 90.0589M199.46 101.61C203.246 97.8583 207.8 93.1968 210.751 89.7291" stroke="#E8DCC4" stroke-width="7.21564" stroke-dasharray="0 0" fill="none" transform="matrix(1 0 0 1.0005 242.545 580.536)"/><path d="M-208.425-101.266C-95.4556-98.0408 16.8207-98.3876 207.769-101.326M-209.452-100.792C-93.9508-100.294 21.3565-101.4 210.107-101.108M208.758-103.176C207.277-51.3714 211.846 2.16104 211.008 102.446M208.608-101.969C209.123-32.767 210.291 36.1225 209.122 101.739M207.872 100.945C103.617 102.479-0.289384 101.771-210.06 102.413M208.542 100.664C91.4228 102.813-27.4532 103.15-208.944 101.321M-207.559 102.034C-208.418 38.4197-206.879-29.3103-211.051-102.75M-208.263 101.145C-208.6 28.9574-208.968-42.2793-208.727-100.413" stroke="#000000" stroke-width="2.34508" stroke-dasharray="0 0" fill="none" transform="matrix(1 0 0 1.0005 242.545 580.536)"/><path d="M233.862 142.121C233.12 157.252 233.413 170.036 234.605 199.416M233.878 142.157C234.166 163.257 233.595 183.266 234.277 198.827" stroke="#333333" stroke-width="6.31369" stroke-dasharray="0 0" fill="none" transform="matrix(1 0 0 1.0005 8.39082 15.2633)"/><g clip-path="url(#clip0)"><path d="M0 0 14.4313 7.21565 0 14.4313Z" stroke="#333333" stroke-width="1.44313" stroke-dasharray="1.44313 0" fill="#333333" transform="matrix(0.0437568 0.999542 -0.999041 0.0437787 249.561 206.662)"/></g><path d="M234.756 397.962C234.854 408.533 233.169 421.256 233.996 453.512M234.146 397.748C234.386 410.317 233.79 422.885 234.099 453.664" stroke="#333333" stroke-width="6.31369" stroke-dasharray="0 0" fill="none" transform="matrix(1 0 0 1.0005 8.39082 15.2633)"/><g clip-path="url(#clip1)"><path d="M0 0 14.4313 7.21564 0 14.4313Z" stroke="#333333" stroke-width="1.44313" stroke-dasharray="1.44313 0" fill="#333333" transform="matrix(0.0100362 1.00045 -0.99995 0.0100412 249.633 461.864)"/></g></g></g><text font-family="Kristen ITC,Kristen ITC_MSFontService,sans-serif" font-weight="400" font-stretch="semi-expanded" font-size="32" transform="translate(94.9209 89)">can</text><text font-family="Kristen ITC,Kristen ITC_MSFontService,sans-serif" font-weight="400" font-stretch="semi-expanded" font-size="32" transform="translate(160.754 89)">i</text><text font-family="Kristen ITC,Kristen ITC_MSFontService,sans-serif" font-weight="400" font-stretch="semi-expanded" font-size="32" transform="translate(179.254 89)">eat</text><text font-family="Kristen ITC,Kristen ITC_MSFontService,sans-serif" font-weight="400" font-stretch="semi-expanded" font-size="32" transform="translate(239.421 89)">breakfast</text><text font-family="Kristen ITC,Kristen ITC_MSFontService,sans-serif" font-weight="400" font-stretch="semi-expanded" font-size="32" transform="translate(170.088 127)">at night ?</text><text font-family="Kristen ITC,Kristen ITC_MSFontService,sans-serif" font-weight="400" font-stretch="semi-expanded" font-size="59" transform="translate(142.754 338)">Hmm...</text><text font-family="Consolas,Consolas_MSFontService,sans-serif" font-weight="400" font-size="32" transform="translate(56.8376 533)">Yes. It's the perfect</text><text font-family="Consolas,Consolas_MSFontService,sans-serif" font-weight="400" font-size="32" transform="translate(101.004 572)">fuel for</text><text font-family="Consolas,Consolas_MSFontService,sans-serif" font-weight="400" font-size="32" transform="translate(260.004 572)">anothe</text><text font-family="Consolas,Consolas_MSFontService,sans-serif" font-weight="400" font-size="32" transform="translate(366.004 572)">r</text><text font-family="Consolas,Consolas_MSFontService,sans-serif" font-weight="400" font-size="32" transform="translate(136.338 610)">six</text><text font-family="Consolas,Consolas_MSFontService,sans-serif" font-weight="400" font-size="32" transform="translate(207.004 610)">hours</text><text font-family="Consolas,Consolas_MSFontService,sans-serif" font-weight="400" font-size="32" transform="translate(313.004 610)">of</text><text font-family="Consolas,Consolas_MSFontService,sans-serif" font-weight="400" font-size="32" transform="translate(83.3376 648)">useless</text><text font-family="Consolas,Consolas_MSFontService,sans-serif" font-weight="400" font-size="32" transform="translate(224.671 648)">scrolling</text><text font-family="Consolas,Consolas_MSFontService,sans-serif" font-weight="400" font-size="32" transform="translate(383.671 648)">.</text></g></svg>