<svg width="676" height="652" xmlns="http://www.w3.org/2000/svg" xmlns:xlink="http://www.w3.org/1999/xlink" overflow="hidden"><defs><clipPath id="clip0"><path d="M889.469 530.627 889.724 545.714 874.632 545.969 874.377 530.881Z" fill-rule="evenodd" clip-rule="evenodd"/></clipPath></defs><g transform="translate(-550 -26)"><g><g><path d="M-83.0866-59.73C-83.0866-59.73-83.0866-59.73-83.0866-59.73M-83.0866-59.73C-83.0866-59.73-83.0866-59.73-83.0866-59.73M-82.4612-46.0818C-77.8414-50.7851-73.8978-55.3668-69.8973-60.857M-82.3597-46.5951C-78.2876-50.6461-74.5998-54.3575-69.4278-61.1701M-84.0212-29.669C-73.4308-39.647-66.5928-50.4582-56.344-58.9311M-83.6858-31.2159C-75.4532-37.772-70.7183-44.7854-57.5734-60.6938M-81.5694-18.0184C-73.4374-25.1163-66.9515-35.7415-45.9445-59.6143M-82.7624-18.2501C-70.0549-30.3519-59.0843-46.1249-45.1894-60.0591M-84.6785-4.54717C-68.6768-17.0596-56.2871-31.6187-34.5298-59.3194M-82.4801-1.39816C-73.3717-16.0393-61.51-28.2038-31.7721-61.2351M-84.3544 9.87197C-66.9554-6.2646-48.2449-30.1285-18.693-59.5267M-81.4499 11.093C-60.7834-11.7389-42.1196-34.2002-20.4244-60.6531M-80.5615 24.8824C-52.4943-7.72033-28.3391-37.824-6.19065-59.0811M-82.9694 25.4311C-60.9866 1.30355-39.1495-26.0868-7.52461-60.7529M-80.7444 41.7327C-60.9272 15.9224-34.645-14.1476 4.46271-58.5971M-82.5511 40.6339C-57.0895 11.3769-32.9423-15.8097 6.3642-60.1924M-81.9491 57.1957C-47.905 13.7209-9.22379-28.287 18.6067-59.7249M-82.7893 56.31C-52.7012 21.2063-22.5338-12.252 17.7737-59.3425M-73.4423 57.8323C-41.8652 23.4954-7.35548-16.334 30.2791-60.6936M-75.0627 59.4156C-46.4727 25.087-16.887-6.53255 31.648-59.8471M-60.6486 59.6601C-36.7485 28.1836-10.5684 0.80981 44.9265-58.161M-63.1485 60.1239C-25.9349 16.1696 12.6817-26.2476 43.6912-59.6965M-51.7096 58.5469C-10.1433 14.8953 31.968-35.1467 53.8817-58.8048M-51.5904 61.372C-26.3792 34.7685-2.34498 7.15505 55.0062-60.6869M-36.7254 61.7054C-14.8275 32.7408 5.33113 6.48818 66.0005-59.5079M-36.7247 58.9404C-8.04659 24.8738 22.0216-7.24198 68.2532-61.1553M-25.83 60.1307C15.888 13.4106 55.9364-33.8557 78.4207-59.7745M-24.4858 61.5668C3.79959 27.4024 31.8977-5.26334 80.3005-61.2139M-14.5869 59.4642C18.3038 26.4964 49.9238-9.15172 83.5281-47.4929M-13.908 61.3083C16.0221 27.6693 45.9868-7.80951 83.4442-50.8597M0.609881 59.5722C31.8028 25.8378 58.9143-10.8858 83.4011-35.8658M-0.207812 61.2842C28.5637 26.934 56.82-4.90826 84.6176-37.4901M12.0112 59.9625C30.2592 37.4303 54.8898 10.3771 81.3926-21.7116M13.3552 61.3554C31.7262 38.5712 52.26 16.2213 83.5839-21.8571M27.8857 61.6858C49.0203 37.1926 69.3998 8.31497 81.7846-6.9171M26.2093 60.4843C48.1508 33.5438 71.0992 7.07974 83.2337-7.38843M35.3079 62.3537C44.4053 49.0758 56.528 38.2786 82.8497 7.26642M37.5595 60.4075C47.9031 48.1396 57.7262 36.7497 84.5542 8.57479M51.714 62.1212C61.4301 48.0253 67.6102 36.911 85.2755 18.3633M49.5499 60.8784C59.8121 49.4817 67.1365 39.0767 83.8843 21.0976M63.3315 61.807C65.4457 55.426 73.0372 47.6327 85.5514 33.5058M62.7123 60.334C68.3665 53.9964 73.0793 47.7711 84.1494 34.8966M74.3482 60.4214C77.87 57.4789 79.997 54.4962 84.5661 50.5629M75.2304 60.6804C76.4717 58.0332 78.2999 56.1848 83.2685 50.362" stroke="#D8E2DC" stroke-width="7.54477" stroke-dasharray="0 0" fill="none" transform="matrix(1.00032 0 0 1 639.812 97.0048)"/><path d="M-84.4215-62.0875C-24.5523-60.5147 27.3905-57.9153 82.6808-61.63M-81.9407-59.2705C-28.7655-60.1826 21.6192-59.935 81.6601-59.2268M82.403-57.8598C84.1688-25.9002 81.715 7.94009 84.3201 62.314M82.494-59.2591C82.9261-21.3555 81.3598 14.6213 81.6202 61.5017M82.4576 58.3671C22.1667 58.4715-33.1166 59.4662-81.0144 58.5019M81.6044 60.1749C30.5896 60.471-22.4663 59.0692-82.8702 60.6751M-85.0921 60.1741C-82.448 20.2819-84.333-15.7252-82.1128-60.7958M-83.4127 60.8126C-81.8149 25.2279-81.4944-11.6088-82.256-59.9667" stroke="#000000" stroke-width="2.45205" stroke-dasharray="0 0" fill="none" transform="matrix(1.00032 0 0 1 639.812 97.0048)"/><path d="M-87.1778-60.7872C-87.1778-60.7872-87.1778-60.7872-87.1778-60.7872M-87.1778-60.7872C-87.1778-60.7872-87.1778-60.7872-87.1778-60.7872M-87.5024-46.4418C-85.1412-51.1072-79.9076-53.0789-74.0021-60.8124M-87.0446-45.7816C-82.3173-51.5411-78.3455-56.3866-75.4256-60.3219M-89.7593-28.8215C-80.3629-42.5883-66.7695-54.104-62.7724-58.8154M-87.9365-32.4444C-81.5087-36.9428-78.3143-44.6868-63.8629-59.4961M-86.6764-16.0253C-81.5153-26.8667-70.3874-36.9537-48.5895-59.2524M-88.653-17.209C-79.795-26.6467-71.6534-33.6464-50.3634-61.1585M-87.2176-1.76673C-68.4301-22.0903-51.2586-42.3276-37.0547-61.2749M-86.8097-3.06623C-72.0596-21.6332-55.8798-38.5942-38.3256-59.4393M-88.1346 12.6573C-77.2853-1.69975-60.2017-15.4375-25.167-59.3341M-86.2114 12.6854C-72.0588-8.75711-55.6875-25.9383-26.7421-60.2011M-87.8683 23.7354C-60.8106-6.4196-36.2063-31.3039-10.2517-60.8405M-87.0563 26.694C-63.6169-2.19233-39.3133-29.2971-12.6356-61.4701M-90.1675 39.7015C-50.7847 2.38332-17.2573-38.4457-2.08572-58.1246M-87.3801 40.0294C-63.0303 10.4456-36.1609-18.9393-0.499082-60.1454M-85.9329 53.0953C-61.5539 28.3937-38.4248-1.65446 11.7676-61.0819M-86.2218 55.0177C-65.557 30.3662-44.7384 5.51206 10.6298-58.3791M-78.1895 62.5328C-45.6489 19.3614-13.7608-19.0708 25.4699-60.8097M-81.1338 59.1994C-41.442 16.2514-3.29429-26.5681 25.2333-60.8711M-69.4461 62.522C-43.4813 29.0874-12.2775 0.363838 37.0122-59.4173M-66.764 61.6385C-26.8518 14.0389 12.1354-32.4876 36.7006-60.8575M-55.217 60.242C-26.3404 25.7078 3.50151-4.64196 52.9546-61.7032M-53.6487 59.7854C-26.1939 26.0978 1.75163-6.07453 51.187-60.0679M-45.172 61.1904C-18.937 34.8513 2.53239 5.35714 63.9548-58.7473M-41.9991 59.4817C-8.324 21.0308 25.2091-18.5819 61.743-61.2056M-32.6787 58.7931C-2.71808 26.0531 25.7044-7.49337 73.7242-62.3516M-29.2508 61.5909C-4.22078 31.7857 20.2041 1.11038 74.5009-61.2813M-16.0858 61.2983C9.44592 30.3745 37.5768-0.219432 88.834-62.8092M-17.1965 58.9894C22.2729 14.2182 64.0359-32.2206 88.5312-60.4655M-5.30774 59.1381C12.8523 39.1009 33.1622 16.1414 86.7892-48.0179M-5.98254 60.9994C14.9608 37.5148 32.8762 14.7115 89.6537-47.1767M5.13345 58.9832C26.7792 38.6309 40.7966 19.1207 86.6086-31.8863M6.25442 61.427C30.5436 33.2855 51.7771 7.36922 88.5887-33.6122M21.935 59.1707C37.0867 41.5769 54.1746 23.6993 87.8196-19.0001M21.1403 60.11C43.438 35.6317 64.7382 9.17387 87.8442-18.8533M30.0731 59.7359C49.7323 38.2562 72.2452 14.651 88.5998-6.06822M33.0699 59.6143C54.8068 35.3896 75.4112 10.129 90.5086-3.89401M43.4546 60.7058C52.5706 50.5374 64.264 40.3846 89.8238 11.3662M43.3491 60.1142C58.1447 42.6473 75.3325 25.7259 87.6068 9.52389M55.26 60.0005C63.7912 50.5342 71.3484 41.5854 88.7224 23.5961M56.696 60.3368C64.2887 52.8031 72.4345 43.9959 87.8732 25.3609M69.9687 59.764C73.7685 52.3564 79.5434 49.6885 89.2534 37.5116M70.0141 59.8829C74.9992 53.6557 83.0116 45.4691 87.8542 38.7289M82.5332 60.0832C85.4052 57.0176 87.7061 54.1745 89.6004 52.3038M83.0007 59.5097C85.5118 56.99 87.9698 54.3376 89.4031 52.325" stroke="#D8E2DC" stroke-width="7.54477" stroke-dasharray="0 0" fill="none" transform="matrix(1.00032 0 0 1 881.566 96.5544)"/><path d="M-86.7014-62.4935C-43.1161-59.3011-3.06683-60.5996 89.6927-60.7323M-87.091-61.6202C-26.7448-61.8681 34.6554-60.3473 86.9706-60.7831M89.7533-60.4804C86.6294-28.3 86.5784 0.050876 88.3629 59.0926M88.6117-60.9811C88.3614-25.5394 87.5663 6.55935 87.1812 60.1683M87.1375 61.7201C35.1327 59.6566-15.7332 60.7975-88.5472 61.4766M88.0331 61.3261C30.6335 59.3835-24.2613 58.4115-87.1359 60.726M-86.9193 60.2975C-87.776 18.6395-89.341-26.5699-86.0094-58.3643M-86.6716 60.2125C-89.2777 32.5979-88.4609 8.06501-86.6274-59.53" stroke="#000000" stroke-width="2.45205" stroke-dasharray="0 0" fill="none" transform="matrix(1.00032 0 0 1 881.566 96.5544)"/><path d="M-89.4281-60.244C-89.4281-60.244-89.4281-60.244-89.4281-60.244M-89.4281-60.244C-89.4281-60.244-89.4281-60.244-89.4281-60.244M-89.1973-44.381C-86.6031-50.8409-82.7422-54.5328-77.0237-60.1862M-90.1772-46.1599C-84.7981-50.7125-80.384-56.6072-77.7131-59.6883M-87.0378-32.8428C-79.7747-41.0064-68.3151-56.5706-66.3344-58.8764M-89.835-31.6736C-82.6524-40.0466-76.686-45.4492-63.0711-60.5174M-88.3256-17.0576C-82.6835-25.0153-72.5448-35.3761-54.577-61.1844M-88.9801-18.3252C-76.9072-34-62.7198-49.4514-51.9598-60.5275M-90.3009-0.34537C-79.0089-14.0008-65.1094-32.139-39.1925-59.7818M-88.4627-3.14917C-77.1166-14.6648-67.733-28.0717-40.5017-60.0394M-91.8437 14.2753C-76.2344-3.51033-57.1608-26.525-28.3903-59.1754M-89.9435 12.1119C-67.5175-10.9165-48.3385-36.8911-25.4921-60.2748M-87.322 27.192C-67.1047 0.801304-49.0725-20.0249-14.7738-62.2679M-89.7384 26.214C-66.14-3.37284-42.0276-29.3603-15.0092-59.513M-87.4825 40.6855C-58.8031 6.32317-32.9753-24.9415-0.769324-58.7176M-88.9235 41.326C-69.1497 15.474-48.4768-7.6376-1.2579-62.31M-89.3003 52.8178C-54.5382 14.8053-20.2157-22.8273 10.8517-60.3392M-88.6784 54.6139C-69.4185 31.3094-47.7737 7.01162 11.2187-61.8849M-80.9223 62.4104C-39.5175 13.1555-1.19439-33.761 22.2477-61.5738M-81.391 61.4017C-58.0267 33.5663-36.5494 8.72849 24.1641-60.044M-69.0953 61.2154C-48.4251 31.0957-24.4368 6.93277 37.4397-60.1815M-67.793 60.4489C-41.9239 30.4012-15.8642-1.08624 35.8735-60.838M-57.215 59.7244C-23.3986 23.1829 7.25067-14.9445 46.1382-60.566M-56.7494 60.3052C-26.8027 25.3863 3.00826-7.57991 48.5281-60.2389M-45.4123 58.7825C-19.9319 32.1742 2.82807 5.73138 60.2766-59.2588M-45.9342 61.0114C-21.9197 37.2384-1.06798 9.74802 61.3093-59.102M-31.4206 60.1834C-2.50197 21.4801 32.9722-14.019 75.5611-61.8976M-31.7408 59.4263C-5.31071 27.8692 24.2986-3.41167 74.0835-60.286M-21.0397 60.1594C3.53871 37.3252 25.1729 9.58053 83.8101-58.6393M-20.0352 59.4795C20.2988 13.6047 60.5008-30.8898 84.9696-59.6714M-9.28957 62.0879C28.3543 18.354 64.5641-21.0606 91.036-48.9963M-8.01671 61.9363C25.9507 22.8111 60.6731-17.1226 90.7396-50.7675M6.68082 61.1756C37.2917 21.2406 73.9648-17.2655 90.6851-34.4768M6.82707 59.7254C30.505 30.5143 57.4817 1.31405 89.2979-36.8756M19.2612 60.9939C42.518 30.3959 66.702 0.240989 87.9626-21.5655M17.1039 61.0678C37.1564 37.1962 57.4835 13.5941 90.2599-20.6616M31.1607 62.2273C49.5553 36.0454 67.566 19.1841 89.4187-11.1684M32.3955 60.4154C56.11 32.5162 77.4209 6.1951 90.0396-9.39717M43.1353 60.1953C52.2469 47.8911 61.4645 39.9382 90.3934 8.30517M44.1076 61.1889C54.0401 45.8015 66.1203 32.1584 89.2109 5.54253M53.4784 61.1245C68.808 42.7562 82.1911 27.974 88.5203 18.4693M55.6572 59.595C67.0417 47.2519 79.2261 33.9732 89.3097 22.0085M69.7775 60.5413C77.1237 49.5313 81.7877 45.1595 89.8717 37.6306M68.7538 60.6846C75.089 51.5189 82.6921 42.6034 90.6221 35.4797M81.7654 59.1869C84.446 56.2106 86.8831 52.6982 90.6084 48.763M80.4531 60.2696C84.5496 56.6348 87.41 52.2481 90.8101 48.3729" stroke="#D8E2DC" stroke-width="7.54477" stroke-dasharray="0 0" fill="none" transform="matrix(1.00032 0 0 1 1129.59 96.8294)"/><path d="M-86.996-59.7572C-47.8126-61.2577-8.47724-62.1548 91.332-60.187M-88.6115-60.2844C-23.5322-61.9456 40.6965-62.3479 89.9844-60.2559M87.924-57.8879C88.518-25.2517 90.7313 6.18581 88.8808 62.4819M90.1774-60.5862C89.4644-17.5112 90.0814 24.3167 90.3945 60.7682M86.7623 59.5778C42.5294 62.1339 1.38265 61.2295-87.4131 59.6465M88.8505 59.9503C31.817 60.8134-26.0859 59.9569-89.3181 61.6587M-90.0289 60.8863C-91.8205 22.4756-89.9271-20.5467-87.8442-60.6211M-88.4352 61.6146C-88.8336 34.956-88.5812 6.699-89.1133-59.3623" stroke="#000000" stroke-width="2.45205" stroke-dasharray="0 0" fill="none" transform="matrix(1.00032 0 0 1 1129.59 96.8294)"/><path d="M-111.515-124.43C-111.515-124.43-111.515-124.43-111.515-124.43M-111.515-124.43C-111.515-124.43-111.515-124.43-111.515-124.43M-111.012-110.553C-107.397-115.436-102.334-119.877-98.6411-123.36M-111.946-109.375C-108.225-114.532-104.547-118.519-99.9173-124.001M-112.958-93.9075C-103.355-100.29-99.5555-111.624-85.0529-122.147M-111.789-93.9581C-105.394-103.752-97.8198-113.013-88.6901-123.81M-110.989-78.7633C-95.7077-96.8423-84.6099-113.366-72.1817-123.776M-112.331-80.9736C-96.3626-97.236-81.5429-115.905-73.3242-124.173M-110.023-68.3058C-93.854-89.9094-72.1264-110.71-59.4579-123.024M-110.291-67.6842C-95.9166-84.914-78.9492-103.113-60.9424-123.841M-113.288-52.3358C-86.4743-81.4129-62.786-108.903-50.5186-121.764M-110.999-51.0318C-96.1028-69.6617-82.4966-87.5439-50.025-122.738M-112.991-34.8543C-89.8317-62.4566-68.5717-87.9588-36.2449-122.139M-111.029-37.249C-97.001-55.6812-81.8974-72.0322-36.7535-125.1M-113.217-23.5655C-85.7108-53.7942-54.0372-90.43-23.5654-122.302M-112.015-23.2056C-82.2259-57.341-54.097-92.2476-25.329-123.517M-111.681-9.29749C-72.6408-48.8019-35.4398-96.0481-10.3743-122.453M-112.025-8.78501C-86.0306-39.0611-58.5074-69.4806-11.9974-123.893M-113.088 5.30353C-79.2774-34.3019-42.876-74.0817 1.57098-122.555M-113.07 6.42303C-70.1926-43.0471-28.0907-91.6847 0.216014-125.177M-113.437 20.2644C-72.7646-25.2696-36.2073-65.536 12.681-124.831M-112.097 21.2958C-76.9018-21.507-42.119-61.3678 11.8486-122.967M-114.474 32.5602C-63.9966-21.9753-19.5332-76.9919 23.8228-122.966M-112.748 33.6177C-79.3588-2.14346-45.3394-42.1055 26.8538-124.599M-112.253 50.0939C-69.4054 2.79466-29.9091-43.8937 37.4593-121.837M-112.509 48.4792C-61.8795-7.61703-12.6571-64.1992 38.6141-123.543M-112.434 60.5813C-56.2775 0.632022-1.92998-65.0169 50.3524-122.019M-112.691 61.7497C-66.0298 11.0192-19.4262-41.1098 50.4624-122.592M-111.552 79.4425C-67.2975 28.0787-21.1702-22.4089 62.1546-127.213M-111.568 77.0813C-73.6859 31.0013-34.6942-14.0899 63.8602-125.595M-114.733 92.5343C-64.2836 37.3701-14.3311-17.3944 75.5631-123.611M-111.307 91.7644C-58.5241 29.2352-4.30652-33.4498 76.1574-123.938M-110.07 107.838C-54.8321 37.2673 2.12224-26.4324 85.7935-125.547M-111.379 106.464C-55.436 42.9869-0.581452-20.7721 87.9913-123.895M-112.184 120.01C-45.5629 42.6443 25.4822-32.7697 103.612-125.81M-111.28 119.476C-39.3845 35.2572 33.6855-48.452 102.228-123.292M-106.069 126.267C-42.8532 55.0791 17.1802-15.216 112.174-125.336M-102.793 125.61C-25.6653 35.478 50.8843-52.4798 112.488-124.504M-91.9951 125.448C-23.7839 49.0752 42.941-23.2833 112.274-111.089M-92.1785 124.658C-15.619 36.6627 61.4531-52.6181 114.038-109.44M-78.3999 123.122C-29.9667 70.0538 16.3506 13.4061 110.067-95.8088M-77.7195 125.301C-11.8576 46.4427 58.7876-32.9028 113.718-95.4839M-64.1584 126.234C-11.1351 62.3647 43.6505-4.96048 114.574-77.8764M-65.604 125.579C-28.1987 84.1656 7.82265 40.6916 111.139-79.5033M-54.2405 123.914C-17.6196 85.4409 21.3586 38.4933 114.63-65.3419M-53.7462 126.056C13.0061 51.3834 78.7758-25.4208 114.414-67.7516M-41.9245 122.246C-11.5693 87.1623 24.3166 52.2206 111.079-52.0396M-40.6445 124.14C12.4304 62.7045 65.0549 3.53175 112.214-51.9801M-28.17 125.855C7.0641 84.8978 38.8528 42.0042 114.293-37.1336M-28.2331 124.424C26.353 60.4024 82.9683-3.68156 111.549-38.4676M-16.8881 124.782C13.5804 95.3056 39.7395 60.925 112.525-23.1477M-15.6932 126.754C20.3018 84.655 54.9797 44.3272 113.317-22.9551M-5.42667 124.259C37.3045 76.0729 83.6094 22.0204 115.726-8.78369M-2.40177 125.324C24.2547 90.6468 54.9696 60.1822 113.384-8.93497M8.41654 124.24C48.8719 79.3602 87.4038 36.2461 110.367 7.07101M7.71403 124.892C42.006 88.1929 73.8596 50.7518 114.091 6.47491M19.8479 124.506C41.4675 100.705 60.8359 79.9163 111.34 20.0635M22.473 123.435C50.9133 90.7628 79.7835 60.0319 112.418 19.7434M36.6295 125.643C51.7831 105.334 66.4171 88.1947 110.572 33.2575M33.1347 124.754C59.8264 95.8016 84.8634 68.3543 112.885 36.3556M47.3729 124.073C59.5348 110.818 75.0376 90.8313 113.885 48.8669M47.2945 125.838C71.9351 94.12 97.7824 66.056 112.473 48.8287M57.4099 125.371C82.2802 101.837 101.011 78.9746 113.575 61.8205M59.0267 125.06C71.8097 110.311 85.27 93.9377 111.583 62.1035M73.8627 124.524C84.8854 111.293 93.4704 99.1887 113.085 77.8908M70.9064 126.055C86.6744 106.671 101.775 90.5224 113.023 77.4225M82.2113 127.615C94.8039 113.887 99.4719 103.28 112.057 93.9399M83.59 125.327C92.8615 115.238 101.093 107.064 111.89 93.2445M96.5904 123.682C100.476 119.52 105.04 115.255 113.332 106.241M96.7542 124.507C103.184 118.019 108.246 112.209 113.309 105.953M109.1 124.965C110.833 123.444 112.385 121.77 112.903 120.279M109.063 124.791C110.15 123.923 110.989 122.794 112.963 120.453" stroke="#FDF1B8" stroke-width="7.54477" stroke-dasharray="0 0" fill="none" transform="matrix(1.00032 0 0 1 881.566 352.656)"/><path d="M-110.964-122.263C-31.0622-125.227 51.7508-124.921 113.338-122.123M-112.56-123.607C-65.1059-122.315-15.5974-124.127 111.999-123.952M112.974-123.667C110.855-43.9009 109.874 40.303 110.787 121.892M113.157-123.907C111.064-51.9223 109.545 21.3669 112.225 122.936M110.808 122.74C60.5513 126.667 7.18451 124.061-109.563 124.567M112.314 122.872C42.3709 123.419-27.3805 123.735-112.568 125.226M-110.251 122.276C-110.261 44.297-114.566-34.0743-110.722-125.845M-110.563 124.672C-112.339 67.2593-113.888 9.21191-111.516-124.994" stroke="#000000" stroke-width="2.45205" stroke-dasharray="0 0" fill="none" transform="matrix(1.00032 0 0 1 881.566 352.656)"/><path d="M-179.156-60.7676C-179.156-60.7676-179.156-60.7676-179.156-60.7676M-179.156-60.7676C-179.156-60.7676-179.156-60.7676-179.156-60.7676M-179.864-46.7811C-175.893-50.3137-172.634-53.2319-166.842-60.159M-179.845-46.3866C-176.671-49.7809-173.752-53.1154-167.718-60.8296M-177.81-31.8152C-172.038-41.4751-165.014-50.7563-155.495-61.8179M-179.338-32.1463C-171.92-39.1898-165.757-45.6313-155.341-58.8451M-178.479-14.7188C-165.336-29.7445-155.079-43.954-139.969-62.115M-179.607-17.2219C-169.905-28.7181-161.828-39.9255-140.968-61.4406M-179.548-1.08564C-167.219-18.5248-154.33-30.8958-128.531-60.0351M-178.285-3.68149C-162.122-24.2027-142.865-45.2091-129.651-60.3378M-181.537 10.2876C-157.297-10.8454-139.332-34.4912-117.466-62.0055M-179.367 11.5755C-163.519-6.2856-150.117-24.005-117.318-59.8257M-180.002 27.2382C-160.771 5.98341-140.296-20.3646-104.563-61.9965M-179.612 25.9788C-159.362 3.7286-141.56-18.8701-104.369-60.5445M-182.43 40.967C-147.094 3.60023-112.71-36.958-90.4751-60.3353M-180.981 42.0755C-152.168 8.06431-121.54-24.4921-91.1684-61.062M-179.811 55.8913C-153.515 26.192-129.349-6.62045-81.6326-58.9676M-179.129 53.4886C-150.62 22.4927-121.654-11.1397-80.7385-60.0126M-170.474 62.1072C-146.436 32.1984-123.559 6.03303-68.6052-62.1875M-173.133 60.268C-145.875 31.4088-120.863 0.348583-65.7365-60.2707M-161.775 63.1574C-123.485 15.3569-80.14-29.4531-52.3604-61.3264M-160.24 61.292C-122.594 18.0665-81.7667-27.0351-55.9066-58.8427M-144.959 59.7153C-113.852 20.4125-74.9868-21.751-40.4767-59.9413M-145.556 60.7548C-106.211 13.3876-64.0133-35.7953-41.1035-60.825M-134.374 61.8484C-105.352 27.1803-81.035-3.14958-27.2333-59.7846M-134.308 61.1961C-99.0854 18.3924-64.3229-21.5883-28.8125-59.2667M-122.177 61.3683C-97.4207 33.6733-75.6279 6.08457-19.0418-61.9388M-121.929 59.9247C-99.1398 32.8766-72.7694 4.18483-17.8445-59.2135M-107.242 61.3626C-83.1389 26.7958-50.6259-3.37368-2.08053-58.7494M-108.478 59.7942C-77.6609 22.3185-42.9717-14.2076-4.55386-61.1745M-98.1675 60.0202C-58.4661 17.2607-18.2346-33.3169 7.05387-58.8618M-96.5051 61.0727C-59.1673 17.8585-23.4701-24.2739 7.28395-59.7902M-83.6125 61.9972C-63.4549 35.6218-38.8133 9.12367 21.3484-61.3109M-84.1917 61.8066C-57.3588 27.7311-26.9759-4.70941 19.8926-60.4954M-72.5697 57.8407C-35.9283 22.7142-6.62085-18.8515 34.327-59.5265M-72.8132 59.1407C-34.2612 14.375 4.98367-26.995 32.4881-60.0847M-57.5025 58.5933C-19.7022 18.178 13.5156-29.6957 45.1343-62.0135M-60.1353 59.8254C-36.6162 35.386-14.3731 9.15384 45.3122-60.2712M-46.9727 62.8903C-11.0068 20.379 22.2436-19.3475 59.3626-59.1411M-48.1369 62.1C-20.8359 32.5333 2.17759 3.78876 58.6901-59.146M-34.8106 61.6652C3.02764 14.6213 46.1493-29.45 68.8377-61.9555M-35.225 59.9075C-2.65411 23.2607 28.2344-11.4491 71.0656-60.1462M-19.7561 61.7199C10.7182 17.3503 46.8786-19.5985 83.7699-58.1172M-21.5543 60.8499C19.2995 13.8708 59.0393-32.7727 81.6152-59.975M-9.47892 60.9723C22.1828 20.9775 54.3918-14.1826 96.7698-58.7587M-10.1481 60.9518C18.2 30.1419 43.3502 0.415062 95.6471-59.0696M4.16738 60.1731C42.6796 13.4627 80.4636-30.7438 108.027-60.1759M1.81236 61.184C28.6068 29.286 55.7804-1.30573 108.353-61.1329M13.086 59.3216C48.3365 22.3671 86.0894-20.8818 120.326-57.9096M14.0433 60.5483C52.513 20.2967 88.6433-22.4326 120.149-61.1982M27.0428 60.1456C72.1263 12.5306 109.087-34.7968 133.617-61.7815M29.1422 60.4525C67.7717 16.0043 105.668-27.4107 131.416-59.0221M40.3193 58.5146C64.6106 30.9125 95.5025-4.59646 144.158-63.2106M41.3366 61.31C62.4557 34.5274 82.0904 11.2923 146.674-61.4928M53.6198 59.3332C75.8934 31.6775 102.329 6.29182 159.986-58.9435M53.3894 61.3785C87.007 20.7129 120.029-19.7127 156.596-59.7099M67.8341 59.9473C101.724 19.9748 136.861-20.2155 169.316-59.0255M65.5236 58.8724C96.7531 24.428 124.54-10.1092 170.515-59.5032M78.3245 61.6507C112.94 22.2302 145.663-12.8925 179.197-53.8103M77.292 60.6675C101.452 32.1047 127.12 3.73491 180.164-56.1429M87.4442 58.5415C113.146 35.3348 131.846 9.17936 180.852-43.3106M89.8237 62.0485C112.269 33.0326 136.885 7.99074 180.045-42.6453M102.072 58.9536C123.512 39.7604 143.425 12.9366 182.147-28.7107M104.464 58.9668C130.09 31.1116 155.766-0.331715 180.195-27.9427M115.295 58.6904C135.86 34.9466 161.255 8.31483 181.427-13.8491M115.195 61.1415C131.626 41.3549 149.812 21.7554 180.095-12.4353M126.106 60.5914C147.225 39.695 164.778 16.5905 177.213-0.546177M127.614 60.0988C143.697 41.9064 161.214 19.6076 179.382 1.32993M140.395 60.5188C155.316 43.5835 168.286 32.7393 180.343 15.2038M140.646 60.3947C150.961 45.6159 163.374 33.3378 179.774 13.7396M153.891 61.8985C160.852 53.7086 165.695 46.6057 177.741 31.2453M153.949 60.4977C163.156 49.4418 171.587 38.5175 179.665 30.1337M163.376 60.9541C168.735 57.5996 172.824 53.731 178.459 43.7223M164.719 60.2958C168.63 55.5021 172.763 50.4645 180.376 43.6372M178.171 59.902C178.719 59.3932 179.063 58.9006 179.387 58.442M178.201 60.0071C178.567 59.5094 178.987 59.1372 179.424 58.4993" stroke="#E8DCC4" stroke-width="7.54477" stroke-dasharray="0 0" fill="none" transform="matrix(1.00032 0 0 1 881.566 609.271)"/><path d="M-180.515-61.0943C-98.6405-62.4392-16.7519-64.9673 179.132-60.967M-180.199-60.4071C-48.5921-57.7962 84.2995-58.0805 180.011-60.0334M179.089-62.4441C180.241-32.474 178.539 0.472657 176.964 60.079M178.492-60.0253C178.789-23.4677 179.793 13.1781 179.097 60.9269M179.893 58.0684C49.0327 59.7263-78.94 59.7584-181.229 61.8038M178.472 60.0452C93.219 59.0114 7.16218 59.8372-180.774 59.8119M-180.417 61.4308C-180.058 20.5092-181.132-13.4532-176.908-62.018M-179.158 60.1983C-180.041 33.2352-179.391 7.19595-180.093-59.3437" stroke="#000000" stroke-width="2.45205" stroke-dasharray="0 0" fill="none" transform="matrix(1.00032 0 0 1 881.566 609.271)"/><path d="M597.672 148.044C597.518 149.545 597.675 151.14 597.641 151.85M597.554 147.992C597.594 149.104 597.573 150.173 597.55 151.869M597.576 151.906C598.138 155.302 597.718 163.531 596.696 167.896M597.728 152.444C596.716 154.773 597.854 164.13 597.206 168.751M596.893 168.512C595.207 173.18 595.516 175.456 593.54 176.885M597.703 168.167C596.648 173.579 594.756 176.18 591.98 176.121M593.273 176.682C592.073 178.393 588.974 179.326 561.587 180.143M592.461 176.919C590.842 179.13 591.202 179.095 561.72 179.864M560.456 180.301C531.75 181.642 472.79 181.46 443.682 182.679M561.068 179.677C531.086 181.749 472.979 179.802 443.711 182.617M444.366 181.667C414.967 181.325 412.993 183.843 411.079 186.055M444.094 180.684C415.701 183.077 413.035 183.347 411.576 184.198M411.55 185.286C409.985 187.487 408.027 188.269 408.184 193.279M411.368 184.71C411.023 186.851 408.46 188.238 407.8 193.285M407.931 193.455C406.42 197.447 406.285 205.508 407.683 211.18M407.761 194.335C408.3 198.142 406.962 204.989 406.043 209.004M407.307 210.097C407.348 211.455 407.288 212.782 407.349 213.96M407.254 210.096C407.199 211.204 407.258 212.308 407.305 213.964" stroke="#333333" stroke-width="1.88619" stroke-dasharray="3.77238 3.77238" fill="none" transform="matrix(1.00032 0 0 1 531.822 11.249)"/><path d="M350.643 148.046C350.777 169.853 349.259 192.285 350.569 214.953M349.898 147.84C349.642 173.836 349.458 199.001 349.533 213.949" stroke="#333333" stroke-width="1.88619" stroke-dasharray="3.77238 3.77238" fill="none" transform="matrix(1.00032 0 0 1 531.822 11.249)"/><path d="M108.006 148.04C107.935 149.6 107.853 151.123 107.939 151.994M107.971 148.011C107.995 149.232 107.928 150.521 107.936 151.91M107.956 151.906C107.762 156.743 107.531 164.052 108.806 167.756M108.65 151.398C107.14 155.755 107.302 164.335 107.607 168.254M108.639 168.512C109.186 174.212 110.769 174.651 112.014 176.892M107.668 167.676C108.729 172.742 110.598 175.15 112.18 175.574M112.259 176.682C114.138 177.57 114.485 180.166 142.925 181.202M113.21 177.459C114.64 179.431 114.386 180.836 145.098 180.671M144.032 180.301C173.331 180.927 226.601 181.356 255.195 181.917M143.975 181.162C171.364 181.456 226.303 180.143 255.021 180.585M255.943 181.667C285.451 181.341 285.427 183.479 286.938 184.624M255.357 181.445C285.391 181.784 286.405 183.366 288.385 186.496M287.716 185.286C289.306 186.805 290.438 189.536 290.22 192.805M288.805 184.55C289.42 185.606 289.995 189.532 291.962 193.902M291.336 193.455C291.697 198.129 292.557 206.156 290.89 209.554M290.713 194.182C291.792 199.348 292.6 206.944 290.756 211.223M292.007 210.093C291.992 211.495 292.121 212.857 292.096 213.946M291.978 210.005C291.972 211.074 292.054 211.937 291.99 214.023" stroke="#333333" stroke-width="1.88619" stroke-dasharray="3.77238 3.77238" fill="none" transform="matrix(1.00032 0 0 1 531.822 11.249)"/><path d="M350.727 468.45C350.237 485.643 350.437 501.103 349.247 526.25M349.145 469.348C349.05 482.241 349.593 496.017 350.117 527.049" stroke="#333333" stroke-width="1.88619" stroke-dasharray="0 0" fill="none" transform="matrix(1.00032 0 0 1 531.822 11.249)"/><g clip-path="url(#clip0)"><path d="M0 0 15.0895 7.54477 0 15.0895Z" stroke="#333333" stroke-width="1.50895" stroke-dasharray="1.50895 0" fill="#333333" transform="matrix(0.016893 0.999857 -1.00018 0.0168876 889.469 530.627)"/></g></g></g><g><g><g><path d="M43.9375 133.792C42.75 134.979 41.1667 135.969 39.5833 136.562L39.5833 164.271C39.5833 167.635 42.1562 170.208 45.5208 170.208 48.8854 170.208 51.4583 167.635 51.4583 164.271L51.4583 132.208C54.4271 133.792 58.1875 133.792 60.9583 131.021L65.7083 126.271C61.9479 125.875 58.1875 124.885 54.4271 123.302L43.9375 133.792Z" transform="matrix(-1 0 0 1 977 257)"/><path d="M172.583 55.8125 150.021 33.25C148.438 31.6667 146.458 30.6771 144.479 30.0833L144.479 22.7604C144.479 22.1667 144.083 21.7708 143.49 21.7708 139.729 21.7708 136.562 24.9375 136.562 28.6979L136.562 30.4792C122.312 36.0208 108.854 69.2708 87.0833 69.2708L55.4167 69.2708C50.4688 69.2708 46.1146 70.6562 42.3542 73.2292L31.6667 73.2292C22.9583 73.2292 15.8333 80.3542 15.8333 89.0625L15.8333 112.812 31.6667 105.688 31.6667 120.729C31.6667 117.365 29.0937 114.792 25.7292 114.792 22.3646 114.792 19.7917 117.365 19.7917 120.729L19.7917 164.271C19.7917 167.635 22.3646 170.208 25.7292 170.208L25.7292 170.208C29.0937 170.208 31.6667 167.635 31.6667 164.271L31.6667 132.208C34.6354 133.792 38.3958 133.792 41.1667 131.021L53.6354 118.552C58.9792 121.125 64.9167 122.708 71.25 122.708L96.9792 122.708 96.9792 164.271C96.9792 167.635 99.5521 170.208 102.917 170.208 106.281 170.208 108.854 167.635 108.854 164.271L108.854 122.708C111.625 122.708 114.198 122.115 116.771 121.323L116.771 164.271C116.771 167.635 119.344 170.208 122.708 170.208 126.073 170.208 128.646 167.635 128.646 164.271L128.646 112.021C131.219 108.26 132.604 103.708 132.604 98.9583L132.604 102.917C132.604 79.9583 137.948 61.3542 144.479 61.3542L146.854 63.7292C149.031 65.9062 152.198 67.2917 155.167 67.2917L160.312 67.2917 160.708 67.6875C163.875 70.8542 168.823 70.8542 171.99 67.6875L172.583 67.0938C175.552 63.9271 175.552 58.7812 172.583 55.8125Z" transform="matrix(-1 0 0 1 977 257)"/></g></g></g><text font-family="Kristen ITC,Kristen ITC_MSFontService,sans-serif" font-weight="400" font-stretch="semi-expanded" font-size="32" transform="translate(584.583 88)">English</text><text font-family="Kristen ITC,Kristen ITC_MSFontService,sans-serif" font-weight="400" font-stretch="semi-expanded" font-size="32" transform="translate(590.417 126)">‘horse’</text><text font-family="Kristen ITC,Kristen ITC_MSFontService,sans-serif" font-weight="400" font-stretch="semi-expanded" font-size="32" transform="translate(821.234 88)">German</text><text font-family="Kristen ITC,Kristen ITC_MSFontService,sans-serif" font-weight="400" font-stretch="semi-expanded" font-size="32" transform="translate(830.234 126)">‘</text><text font-family="Kristen ITC,Kristen ITC_MSFontService,sans-serif" font-weight="400" font-stretch="semi-expanded" font-size="32" transform="translate(836.568 126)">Pferd</text><text font-family="Kristen ITC,Kristen ITC_MSFontService,sans-serif" font-weight="400" font-stretch="semi-expanded" font-size="32" transform="translate(927.568 126)">’</text><text font-family="Kristen ITC,Kristen ITC_MSFontService,sans-serif" font-weight="400" font-stretch="semi-expanded" font-size="32" transform="translate(1067.45 88)">Chinese</text><text font-family="Kristen ITC,Kristen ITC_MSFontService,sans-serif" font-weight="400" font-stretch="semi-expanded" font-size="32" transform="translate(1107.78 127)">‘</text><text font-family="Noto Sans HK Medium,Noto Sans HK Medium_MSFontService,sans-serif" font-weight="500" font-size="32" transform="translate(1114.11 127)">馬</text><text font-family="Kristen ITC,Kristen ITC_MSFontService,sans-serif" font-weight="400" font-stretch="semi-expanded" font-size="32" transform="translate(1146.11 127)">’</text><text font-family="Consolas,Consolas_MSFontService,sans-serif" font-weight="400" font-size="32" transform="translate(724.416 598)">What machine sees:</text><text font-family="Consolas,Consolas_MSFontService,sans-serif" font-weight="400" font-size="32" transform="translate(724.416 636)">[0.12,</text><text font-family="Consolas,Consolas_MSFontService,sans-serif" font-weight="400" font-size="32" transform="translate(848.082 636)">-</text><text font-family="Consolas,Consolas_MSFontService,sans-serif" font-weight="400" font-size="32" transform="translate(865.749 636)">0.88, ...]</text></g></svg>